# Blender v3.1.2 OBJ File: 'untitled4.blend'
# www.blender.org
mtllib bench.mtl
o hatka_local_.008_hatka_local_.001
v 0.204516 0.068712 0.054739
v -0.201212 0.068815 0.054739
v -0.199189 0.058411 0.079200
v 0.202019 0.058742 0.079345
v 0.103947 0.036840 0.089583
v -0.107415 0.036840 0.089583
v -0.107415 0.031968 0.083969
v 0.103947 0.031968 0.083969
v -0.107415 0.030027 0.054739
v 0.103947 0.030027 0.054739
v -0.107415 0.030337 0.030401
v 0.103947 0.030337 0.030401
v -0.124196 0.034114 0.019915
v 0.126054 0.034114 0.019915
v 0.204660 0.058431 0.030154
v -0.204990 0.058907 0.030277
v 0.196425 -0.000481 0.054739
v 0.198943 0.009509 0.030154
v -0.209262 0.009840 0.030277
v -0.207239 -0.000585 0.054739
v -0.199892 0.036468 0.089336
v 0.198921 0.037047 0.089521
v -0.124196 0.009488 0.079365
v -0.203463 0.009323 0.079200
v 0.126054 0.009488 0.079365
v 0.196300 0.009819 0.079345
v -0.124196 -0.000709 0.054739
v 0.126054 -0.000709 0.054739
v -0.124196 0.009488 0.030112
v 0.126054 0.009488 0.030112
v -0.208333 0.034486 0.020163
v 0.202350 0.033908 0.019956
v 0.161104 0.056161 -0.082368
v 0.178115 0.058246 -0.061190
v 0.178115 -0.093456 -0.061231
v 0.161104 -0.093456 -0.082513
v 0.133858 0.056161 -0.082327
v 0.133858 -0.093456 -0.082492
v 0.116889 -0.093456 -0.061169
v 0.116889 0.058246 -0.061128
v 0.122978 -0.093456 -0.034623
v 0.122978 0.060867 -0.034705
v 0.147543 -0.093456 -0.022815
v 0.147543 0.062024 -0.022959
v 0.172066 0.060867 -0.034747
v 0.172066 -0.093456 -0.034664
v 0.169116 -0.080905 -0.002585
v 0.169116 0.073666 -0.002585
v 0.175945 0.071705 0.013763
v 0.175945 -0.080905 0.013763
v 0.152725 -0.080905 -0.009274
v 0.152725 0.075957 -0.009274
v 0.136398 0.073666 -0.002441
v 0.136398 -0.080905 -0.002441
v 0.129688 0.071705 0.013949
v 0.129688 -0.080905 0.013949
v 0.136519 0.070571 0.030277
v 0.136519 -0.080905 0.030277
v 0.152910 0.066772 0.036986
v 0.152910 -0.080905 0.036986
v 0.169238 -0.080905 0.030133
v 0.169238 0.070571 0.030133
v -0.136519 0.056161 -0.082368
v -0.119529 0.058246 -0.061190
v -0.119529 -0.093456 -0.061231
v -0.136519 -0.093456 -0.082513
v -0.163768 0.056161 -0.082327
v -0.163768 -0.093456 -0.082492
v -0.180736 -0.093456 -0.061169
v -0.180736 0.058246 -0.061128
v -0.174646 -0.093456 -0.034623
v -0.174646 0.060867 -0.034705
v -0.150082 -0.093456 -0.022815
v -0.150082 0.062024 -0.022959
v -0.125557 0.060867 -0.034747
v -0.125557 -0.093456 -0.034664
v -0.137529 -0.080905 -0.002585
v -0.137529 0.073666 -0.002585
v -0.130677 0.071705 0.013763
v -0.130677 -0.080905 0.013763
v -0.153920 -0.080905 -0.009274
v -0.153920 0.075957 -0.009274
v -0.170247 0.073666 -0.002441
v -0.170247 -0.080905 -0.002441
v -0.176956 0.071705 0.013949
v -0.176956 -0.080905 0.013949
v -0.170105 0.070571 0.030277
v -0.170105 -0.080905 0.030277
v -0.153714 0.066772 0.036986
v -0.153714 -0.080905 0.036986
v -0.137387 -0.080905 0.030133
v -0.137387 0.070571 0.030133
v -0.189424 0.031039 -0.021742
v -0.187299 0.031700 -0.045398
v -0.188332 0.012564 -0.037843
v -0.190766 0.004142 -0.005042
v -0.188332 0.050567 -0.036253
v -0.190766 0.057916 -0.002792
v -0.187919 0.006000 -0.002627
v -0.187299 0.030978 -0.000397
v 0.195186 0.030998 -0.005661
v 0.196443 0.008395 -0.007684
v 0.195413 0.047862 -0.004423
v -0.186659 0.055542 0.000965
v 0.197932 0.014319 -0.039536
v 0.197021 0.031658 -0.046368
v 0.197951 0.031039 -0.020772
v 0.200141 0.006722 -0.019099
v 0.197932 0.048730 -0.038111
v 0.200141 0.055376 -0.007829
v 0.193245 -0.076137 -0.037843
v 0.192212 -0.045400 -0.045398
v 0.194339 -0.046474 -0.022154
v 0.195680 -0.089617 -0.005042
v 0.193245 -0.015118 -0.036253
v 0.195680 -0.003352 -0.002792
v 0.192212 -0.046577 -0.000397
v 0.192834 -0.086664 -0.002627
v -0.190271 -0.046535 -0.005661
v -0.191530 -0.082825 -0.007684
v 0.191575 -0.007149 0.000965
v -0.190499 -0.019452 -0.004423
v -0.193039 -0.046474 -0.026035
v -0.192109 -0.045482 -0.046368
v -0.193019 -0.073288 -0.039536
v -0.195226 -0.085509 -0.019099
v -0.193019 -0.018070 -0.038111
v -0.195226 -0.007417 -0.007829
vt 0.912500 0.592400
vt 0.874000 0.011200
vt 0.912300 0.007500
vt 0.839300 0.152500
vt 0.874200 0.589500
vt 0.839700 0.457300
vt 0.680700 0.459700
vt 0.670100 0.172200
vt 0.680700 0.172800
vt 0.670000 0.460400
vt 0.628600 0.167700
vt 0.592600 0.466600
vt 0.592600 0.165800
vt 0.568400 0.488200
vt 0.565800 0.136400
vt 0.950700 0.007300
vt 0.989200 0.481400
vt 0.950600 0.597900
vt 0.808400 0.385400
vt 0.723300 0.348600
vt 0.794300 0.349700
vt 0.726400 0.252200
vt 0.812000 0.216700
vt 0.797300 0.252200
vt 0.839300 0.590600
vt 0.839400 0.015600
vt 0.797700 0.481600
vt 0.797500 0.595800
vt 0.797200 0.120700
vt 0.759300 0.481600
vt 0.759500 0.601300
vt 0.758800 0.120700
vt 0.797500 0.019400
vt 0.720900 0.481700
vt 0.721200 0.604300
vt 0.720400 0.120500
vt 0.759000 0.019200
vt 0.682700 0.603200
vt 0.682400 0.481900
vt 0.681900 0.120400
vt 0.720800 0.015400
vt 0.988700 0.602600
vt 0.989000 0.010600
vt 0.988800 0.120600
vt 0.666300 0.502000
vt 0.667300 0.125700
vt 0.628600 0.464900
vt 0.632200 0.515700
vt 0.597300 0.506800
vt 0.597200 0.120800
vt 0.632600 0.112900
vt 0.726300 0.181100
vt 0.765800 0.166300
vt 0.797300 0.181100
vt 0.711600 0.216700
vt 0.761900 0.266900
vt 0.793200 0.420700
vt 0.761400 0.435000
vt 0.722200 0.419700
vt 0.708000 0.383900
vt 0.759000 0.334400
vt 0.225700 0.642700
vt 0.010100 0.681900
vt 0.010000 0.642600
vt 0.010000 0.603400
vt 0.225700 0.603400
vt 0.010100 0.838800
vt 0.225800 0.877900
vt 0.010100 0.878100
vt 0.010100 0.799600
vt 0.228800 0.838700
vt 0.010100 0.760300
vt 0.232500 0.799600
vt 0.232500 0.721000
vt 0.010100 0.721100
vt 0.228700 0.681900
vt 0.029800 0.974500
vt 0.070200 0.896100
vt 0.067800 0.984300
vt 0.156500 0.904500
vt 0.194800 0.984000
vt 0.156500 0.975200
vt 0.013700 0.938700
vt 0.031700 0.903700
vt 0.139400 0.939800
vt 0.099200 0.960700
vt 0.194800 0.895700
vt 0.225500 0.959500
vt 0.734300 0.688200
vt 0.514300 0.662700
vt 0.734300 0.662700
vt 0.734300 0.713700
vt 0.511500 0.688200
vt 0.511500 0.739300
vt 0.734300 0.739300
vt 0.514300 0.764800
vt 0.734300 0.764800
vt 0.515900 0.790300
vt 0.734300 0.790300
vt 0.521400 0.815800
vt 0.734300 0.815800
vt 0.734300 0.637200
vt 0.521400 0.611600
vt 0.734300 0.611600
vt 0.515900 0.637200
vt 0.860000 0.930800
vt 0.836400 0.987700
vt 0.836400 0.921000
vt 0.810500 0.846000
vt 0.834100 0.902900
vt 0.810500 0.893100
vt 0.799300 0.869600
vt 0.834100 0.836200
vt 0.857900 0.893100
vt 0.868200 0.869500
vt 0.857900 0.846000
vt 0.869700 0.954400
vt 0.860000 0.978000
vt 0.812800 0.978000
vt 0.812800 0.930800
vt 0.803000 0.954400
vt 0.472700 0.603300
vt 0.256900 0.642200
vt 0.257000 0.603000
vt 0.472500 0.836600
vt 0.256800 0.875800
vt 0.256800 0.836700
vt 0.256800 0.797700
vt 0.256900 0.758800
vt 0.475600 0.797700
vt 0.256900 0.720000
vt 0.479400 0.758900
vt 0.479400 0.681100
vt 0.256900 0.681200
vt 0.475700 0.642300
vt 0.314900 0.895100
vt 0.353200 0.974600
vt 0.314900 0.983400
vt 0.425900 0.987000
vt 0.463300 0.907000
vt 0.464100 0.977800
vt 0.370200 0.939200
vt 0.353200 0.903900
vt 0.480700 0.942200
vt 0.284200 0.958900
vt 0.284200 0.919600
vt 0.394500 0.923600
vt 0.424900 0.898700
vt 0.984100 0.689600
vt 0.764100 0.664000
vt 0.984100 0.664000
vt 0.984100 0.715100
vt 0.761300 0.689600
vt 0.761300 0.740600
vt 0.984100 0.740600
vt 0.764200 0.766100
vt 0.984100 0.766100
vt 0.765800 0.791700
vt 0.984100 0.791700
vt 0.771300 0.817200
vt 0.984100 0.817200
vt 0.984100 0.638500
vt 0.771300 0.613000
vt 0.984100 0.613000
vt 0.765800 0.638500
vt 0.964800 0.847400
vt 0.941200 0.904200
vt 0.941200 0.837600
vt 0.920000 0.925300
vt 0.943600 0.982200
vt 0.919900 0.972500
vt 0.908700 0.948900
vt 0.943600 0.915500
vt 0.967300 0.972500
vt 0.977600 0.948900
vt 0.967300 0.925300
vt 0.974800 0.870900
vt 0.964800 0.894500
vt 0.917500 0.894500
vt 0.917500 0.847400
vt 0.907600 0.870900
vt 0.719900 0.861700
vt 0.748300 0.840400
vt 0.757500 0.888500
vt 0.693300 0.838600
vt 0.678600 0.885700
vt 0.754100 0.893400
vt 0.717800 0.892500
vt 0.449200 0.018200
vt 0.395300 0.569800
vt 0.416500 0.015500
vt 0.467100 0.570100
vt 0.431600 0.569900
vt 0.692900 0.922400
vt 0.718500 0.948200
vt 0.683400 0.952500
vt 0.742700 0.921800
vt 0.755000 0.964800
vt 0.719600 0.970400
vt 0.743900 0.973000
vt 0.473600 0.018500
vt 0.473500 0.569400
vt 0.525100 0.568400
vt 0.486000 0.015700
vt 0.527900 0.011600
vt 0.555300 0.566900
vt 0.368100 0.012300
vt 0.313300 0.565500
vt 0.341200 0.012200
vt 0.399700 0.010700
vt 0.342900 0.568500
vt 0.390400 0.569600
vt 0.682400 0.893500
vt 0.686900 0.969600
vt 0.557600 0.924900
vt 0.601400 0.945600
vt 0.540300 0.973100
vt 0.645600 0.923000
vt 0.664900 0.970500
vt 0.602700 0.977100
vt 0.544800 0.978300
vt 0.160200 0.564000
vt 0.113400 0.009200
vt 0.171400 0.011600
vt 0.199300 0.565500
vt 0.604200 0.867900
vt 0.643100 0.848800
vt 0.660600 0.878500
vt 0.563400 0.849900
vt 0.547200 0.893200
vt 0.603800 0.897600
vt 0.564700 0.901300
vt 0.228500 0.013700
vt 0.238000 0.015600
vt 0.216800 0.571100
vt 0.288900 0.022700
vt 0.258600 0.579400
vt 0.334300 0.027200
vt 0.299900 0.580600
vt 0.010900 0.011100
vt 0.056400 0.566500
vt 0.015200 0.565500
vt 0.056600 0.009200
vt 0.090800 0.569500
vt 0.107700 0.005200
vt 0.107800 0.564600
vt 0.659500 0.978600
vt 0.656100 0.895600
vt 0.682700 0.010400
vt 0.234200 0.760300
vt 0.100300 0.921400
vt 0.225500 0.920200
vt 0.508200 0.713700
vt 0.472500 0.875800
vt 0.481100 0.720000
vt 0.394900 0.962900
vt 0.758000 0.715100
vt 0.721500 0.827500
vt 0.717400 0.911200
vt 0.555200 0.012900
vt 0.601300 0.911900
vt 0.603100 0.838600
vn 0.0002 0.9268 0.3755
vn -0.0000 0.4337 0.9011
vn 0.0000 -0.7553 0.6554
vn 0.0000 -0.9978 0.0663
vn 0.0000 -0.9999 -0.0127
vn 0.0000 -0.9408 -0.3389
vn 0.0002 0.3861 -0.9225
vn 0.0002 0.9226 -0.3858
vn 0.9918 -0.1159 0.0543
vn -0.9893 0.0861 0.1179
vn -0.0041 0.4194 0.9078
vn -0.0003 0.4247 0.9053
vn -0.0012 -0.3497 0.9369
vn 0.0014 -0.3490 0.9371
vn -0.0014 -0.9268 0.3756
vn 0.0045 -0.9239 0.3826
vn -0.0046 -0.9201 -0.3917
vn 0.0030 -0.9239 -0.3826
vn -0.0044 -0.3826 -0.9239
vn 0.0006 -0.3826 -0.9239
vn -0.0010 0.3828 -0.9238
vn 0.0015 0.3838 -0.9234
vn 0.6396 -0.5806 0.5038
vn -0.5340 -0.6386 0.5541
vn 0.8609 -0.4701 0.1946
vn -0.7074 -0.7053 0.0468
vn 0.7790 -0.6269 -0.0080
vn -0.7891 -0.5676 -0.2350
vn 0.4409 -0.3434 -0.8293
vn -0.3494 -0.3585 -0.8657
vn -0.9893 0.0859 0.1179
vn -0.9892 0.0861 0.1190
vn 0.9918 -0.1159 0.0547
vn 0.9918 -0.1160 0.0536
vn 0.9918 -0.1159 0.0540
vn 0.7811 0.0006 -0.6244
vn -0.0015 0.0011 -1.0000
vn -0.7825 0.0007 -0.6227
vn -0.9747 -0.0001 0.2236
vn -0.4332 0.0005 0.9013
vn 0.4351 0.0005 0.9004
vn 0.9750 -0.0001 0.2220
vn 0.0000 -1.0000 0.0000
vn -0.0001 0.9951 -0.0987
vn -0.0001 0.9952 -0.0978
vn -0.0001 0.9952 -0.0980
vn 0.9227 0.0000 -0.3855
vn 0.3778 0.0000 -0.9259
vn -0.3860 0.0000 -0.9225
vn -0.9255 0.0000 -0.3789
vn -0.9225 0.0000 0.3859
vn -0.3788 0.0000 0.9255
vn 0.3870 0.0000 0.9221
vn 0.9253 0.0000 0.3792
vn 0.0003 0.9976 0.0692
vn 0.0022 0.8724 0.4888
vn 0.0005 0.9929 0.1190
vn 0.0014 0.9471 0.3210
vn 0.7815 0.0006 -0.6239
vn -0.0008 0.0011 -1.0000
vn 0.4350 0.0005 0.9004
vn 0.9752 -0.0001 0.2213
vn 0.9223 0.0000 -0.3865
vn -0.9255 0.0000 -0.3788
vn -0.9221 -0.0000 0.3869
vn -0.9973 0.0045 -0.0728
vn -0.9973 0.0016 -0.0729
vn -0.6253 -0.0540 0.7785
vn -0.9881 -0.1185 0.0980
vn 0.0137 -0.0884 0.9960
vn 0.0137 -0.0557 0.9984
vn 0.9935 0.0842 -0.0761
vn 0.9965 -0.0578 -0.0600
vn 0.9786 0.1005 0.1794
vn 0.6486 -0.0644 0.7584
vn 0.0245 0.8570 0.5148
vn 0.0036 0.9767 -0.2146
vn -0.0023 0.4361 -0.8999
vn -0.0024 -0.3667 -0.9303
vn 0.0027 -0.9372 -0.3487
vn 0.0119 -0.9888 0.1487
vn -0.9889 0.1107 0.0988
vn -0.6819 -0.0228 0.7311
vn 0.9521 0.0257 0.3047
vn 0.9675 -0.1810 0.1766
vn 0.0144 0.4053 0.9141
vn 0.0129 -0.7998 0.6001
vn 0.9973 0.0020 -0.0732
vn 0.9973 0.0019 -0.0732
vn 0.6262 -0.0336 0.7790
vn 0.9925 -0.0743 0.0967
vn -0.0137 -0.0557 0.9984
vn -0.0138 -0.0458 0.9989
vn -0.9957 0.0411 -0.0830
vn -0.9976 -0.0263 -0.0635
vn -0.9878 0.0792 0.1344
vn -0.6495 -0.0402 0.7593
vn -0.0330 0.7207 0.6925
vn -0.0056 0.9432 -0.3322
vn 0.0024 0.2885 -0.9575
vn 0.0025 -0.2387 -0.9711
vn -0.0041 -0.8581 -0.5135
vn -0.0186 -0.9719 0.2345
vn 0.9928 0.0695 0.0974
vn 0.6822 -0.0142 0.7310
vn -0.9524 0.0161 0.3045
vn -0.9841 -0.1173 0.1333
vn -0.0152 0.2667 0.9636
vn -0.0165 -0.6426 0.7660
vn -0.0009 0.9202 0.3914
vn -0.0007 0.4260 0.9047
vn 0.0000 0.3881 -0.9216
vn 0.0010 0.9268 -0.3756
vn 0.9918 -0.1160 0.0545
vn -0.9892 0.0859 0.1184
vn -0.0011 -0.3494 0.9370
vn 0.0019 -0.3503 0.9366
vn 0.0011 -0.9239 0.3826
vn 0.0030 -0.9224 0.3861
vn -0.0014 -0.9239 -0.3826
vn 0.0005 -0.9265 -0.3764
vn -0.0034 -0.3796 -0.9252
vn -0.0005 -0.3856 -0.9227
vn 0.7968 -0.6030 0.0400
vn -0.7891 -0.5676 0.2350
vn 0.8609 -0.4701 -0.1946
vn -0.6861 -0.7274 -0.0093
vn -0.9892 0.0861 0.1184
vn 0.9918 -0.1159 0.0537
vn 0.7796 0.0002 -0.6262
vn -0.0008 0.0010 -1.0000
vn -0.7807 0.0002 -0.6249
vn -0.9745 0.0001 0.2246
vn -0.4314 0.0008 0.9022
vn 0.4333 0.0008 0.9013
vn 0.9748 0.0001 0.2230
vn -0.0001 0.9952 -0.0979
vn 0.0005 0.9929 0.1189
vn 0.7800 0.0002 -0.6257
vn -0.0015 0.0010 -1.0000
vn -0.4314 0.0008 0.9021
vn 0.4332 0.0008 0.9013
vn 0.9750 0.0001 0.2222
vn -0.9959 0.0186 -0.0889
vn -0.9959 -0.0110 -0.0898
vn 0.0137 -0.0892 0.9959
vn 0.0126 -0.0734 0.9972
vn 0.9986 0.0385 -0.0353
vn 0.9987 -0.0353 -0.0371
vn 0.0036 0.9768 -0.2143
vn -0.0022 0.4355 -0.9002
vn -0.0024 -0.3671 -0.9302
vn -0.0026 -0.9685 -0.2489
vn 0.9958 0.0112 -0.0906
vn 0.9958 -0.0064 -0.0914
vn -0.0137 -0.0552 0.9984
vn -0.0130 -0.0347 0.9993
vn -0.9988 0.0217 -0.0446
vn -0.9987 -0.0191 -0.0466
vn -0.0055 0.9435 -0.3314
vn 0.0024 0.2890 -0.9573
vn 0.0025 -0.2386 -0.9711
vn 0.0040 -0.9248 -0.3804
usemtl brench
s off
f 2/1/1 4/2/1 1/3/1
f 5/4/2 3/5/2 6/6/2
f 6/7/3 8/8/3 5/9/3
f 7/10/4 10/11/4 8/8/4
f 10/11/5 11/12/5 12/13/5
f 12/13/6 13/14/6 14/15/6
f 15/16/7 13/17/7 16/18/7
f 15/16/8 2/1/8 1/3/8
f 1/19/9 18/20/9 15/21/9
f 19/22/10 2/23/10 16/24/10
f 3/5/11 21/25/11 6/6/11
f 5/4/12 22/26/12 4/2/12
f 23/27/13 21/25/13 24/28/13
f 25/29/14 22/26/14 5/4/14
f 27/30/15 24/28/15 20/31/15
f 28/32/16 26/33/16 25/29/16
f 29/34/17 20/31/17 19/35/17
f 30/36/18 17/37/18 28/32/18
f 29/34/19 31/38/19 13/39/19
f 14/40/20 18/41/20 30/36/20
f 13/17/21 31/42/21 16/18/21
f 15/16/22 32/43/22 14/44/22
f 6/7/23 23/45/23 7/10/23
f 8/8/24 25/46/24 5/9/24
f 9/47/25 23/45/25 27/48/25
f 10/11/26 25/46/26 8/8/26
f 9/47/27 29/49/27 11/12/27
f 10/11/28 30/50/28 28/51/28
f 11/12/29 29/49/29 13/14/29
f 14/15/30 30/50/30 12/13/30
f 24/52/10 21/53/10 3/54/10
f 24/52/31 2/23/31 20/55/31
f 16/24/32 31/56/32 19/22/32
f 4/57/33 22/58/33 26/59/33
f 1/19/34 26/59/34 17/60/34
f 18/20/35 32/61/35 15/21/35
f 33/62/36 35/63/36 36/64/36
f 33/62/37 38/65/37 37/66/37
f 39/67/38 37/68/38 38/69/38
f 41/70/39 40/71/39 39/67/39
f 43/72/40 42/73/40 41/70/40
f 45/74/41 43/72/41 46/75/41
f 34/76/42 46/75/42 35/63/42
f 46/77/43 39/78/43 35/79/43
f 45/80/44 40/81/44 42/82/44
f 43/83/43 41/84/43 46/77/43
f 44/85/45 45/80/45 42/82/45
f 39/78/43 36/86/43 35/79/43
f 34/87/46 37/88/46 40/81/46
f 47/89/47 49/90/47 50/91/47
f 51/92/48 48/93/48 47/89/48
f 53/94/49 51/92/49 54/95/49
f 55/96/50 54/95/50 56/97/50
f 57/98/51 56/97/51 58/99/51
f 59/100/52 58/99/52 60/101/52
f 61/102/53 59/103/53 60/104/53
f 50/91/54 62/105/54 61/102/54
f 61/106/43 56/107/43 50/108/43
f 62/109/55 55/110/55 57/111/55
f 59/112/56 62/109/56 57/111/56
f 49/113/57 53/114/57 55/110/57
f 52/115/58 53/114/58 48/116/58
f 60/117/43 58/118/43 61/106/43
f 50/108/43 54/119/43 47/120/43
f 51/121/43 47/120/43 54/119/43
f 63/122/59 65/123/59 66/124/59
f 67/125/60 66/126/60 68/127/60
f 69/128/38 67/125/38 68/127/38
f 71/129/39 70/130/39 69/128/39
f 73/131/40 72/132/40 71/129/40
f 75/133/61 73/131/61 76/134/61
f 64/135/62 76/134/62 65/123/62
f 65/136/43 71/137/43 69/138/43
f 64/139/44 72/140/44 75/141/44
f 73/142/43 71/137/43 76/143/43
f 74/144/45 75/141/45 72/140/45
f 65/136/43 68/145/43 66/146/43
f 64/139/46 67/147/46 70/148/46
f 77/149/63 79/150/63 80/151/63
f 81/152/48 78/153/48 77/149/48
f 83/154/49 81/152/49 84/155/49
f 85/156/64 84/155/64 86/157/64
f 87/158/65 86/157/65 88/159/65
f 89/160/52 88/159/52 90/161/52
f 91/162/53 89/163/53 90/164/53
f 80/151/54 92/165/54 91/162/54
f 91/166/43 86/167/43 80/168/43
f 92/169/55 85/170/55 87/171/55
f 89/172/56 92/169/56 87/171/56
f 79/173/57 83/174/57 85/170/57
f 82/175/58 83/174/58 78/176/58
f 90/177/43 88/178/43 91/166/43
f 80/168/43 84/179/43 77/180/43
f 81/181/43 77/180/43 84/179/43
f 93/182/66 95/183/66 96/184/66
f 97/185/67 93/182/67 98/186/67
f 99/187/68 100/188/68 96/184/68
f 100/188/69 98/186/69 93/182/69
f 101/189/70 99/190/70 102/191/70
f 101/189/71 104/192/71 100/193/71
f 105/194/72 107/195/72 108/196/72
f 107/195/73 109/197/73 110/198/73
f 107/195/74 101/199/74 108/196/74
f 110/198/75 103/200/75 101/199/75
f 104/192/76 103/201/76 98/202/76
f 97/203/77 110/204/77 109/205/77
f 109/205/78 94/206/78 97/203/78
f 105/207/79 94/208/79 106/209/79
f 108/210/80 95/211/80 105/207/80
f 96/212/81 108/210/81 102/191/81
f 100/188/82 93/182/82 96/184/82
f 100/188/83 104/213/83 98/186/83
f 101/199/84 102/214/84 108/196/84
f 101/199/85 107/195/85 110/198/85
f 103/201/86 110/204/86 98/202/86
f 102/191/87 99/190/87 96/212/87
f 111/215/88 113/216/88 114/217/88
f 113/216/89 115/218/89 116/219/89
f 117/220/90 118/221/90 114/217/90
f 116/219/91 117/220/91 113/216/91
f 119/222/92 118/223/92 117/224/92
f 117/224/93 122/225/93 119/222/93
f 123/226/94 125/227/94 126/228/94
f 127/229/95 123/226/95 128/230/95
f 119/231/96 123/226/96 126/228/96
f 122/232/97 128/230/97 119/231/97
f 122/225/98 121/233/98 116/234/98
f 128/235/99 115/236/99 127/237/99
f 127/237/100 112/238/100 124/239/100
f 112/240/101 125/241/101 124/242/101
f 111/243/102 126/244/102 125/241/102
f 126/244/103 114/245/103 120/246/103
f 113/216/104 117/220/104 114/217/104
f 121/247/105 117/220/105 116/219/105
f 120/248/106 119/231/106 126/228/106
f 123/226/107 119/231/107 128/230/107
f 128/235/108 122/225/108 116/234/108
f 118/223/109 120/246/109 114/245/109
f 2/1/110 3/5/110 4/2/110
f 5/4/111 4/2/111 3/5/111
f 6/7/3 7/10/3 8/8/3
f 7/10/4 9/47/4 10/11/4
f 10/11/5 9/47/5 11/12/5
f 12/13/6 11/12/6 13/14/6
f 15/16/112 14/44/112 13/17/112
f 15/16/113 16/18/113 2/1/113
f 1/19/114 17/60/114 18/20/114
f 19/22/115 20/55/115 2/23/115
f 23/27/116 6/6/116 21/25/116
f 25/29/117 26/33/117 22/26/117
f 27/30/118 23/27/118 24/28/118
f 28/32/119 17/37/119 26/33/119
f 29/34/120 27/30/120 20/31/120
f 30/36/121 18/41/121 17/37/121
f 29/34/122 19/35/122 31/38/122
f 14/40/123 32/249/123 18/41/123
f 9/47/124 7/10/124 23/45/124
f 10/11/125 28/51/125 25/46/125
f 9/47/126 27/48/126 29/49/126
f 10/11/127 12/13/127 30/50/127
f 24/52/128 3/54/128 2/23/128
f 1/19/129 4/57/129 26/59/129
f 33/62/130 34/76/130 35/63/130
f 33/62/131 36/64/131 38/65/131
f 39/67/132 40/71/132 37/68/132
f 41/70/133 42/73/133 40/71/133
f 43/72/134 44/250/134 42/73/134
f 45/74/135 44/250/135 43/72/135
f 34/76/136 45/74/136 46/75/136
f 46/77/43 41/84/43 39/78/43
f 45/80/44 34/87/44 40/81/44
f 39/78/43 38/251/43 36/86/43
f 34/87/137 33/252/137 37/88/137
f 47/89/47 48/93/47 49/90/47
f 51/92/48 52/253/48 48/93/48
f 53/94/49 52/253/49 51/92/49
f 55/96/50 53/94/50 54/95/50
f 57/98/51 55/96/51 56/97/51
f 59/100/52 57/98/52 58/99/52
f 61/102/53 62/105/53 59/103/53
f 50/91/54 49/90/54 62/105/54
f 61/106/43 58/118/43 56/107/43
f 62/109/55 49/113/55 55/110/55
f 49/113/138 48/116/138 53/114/138
f 50/108/43 56/107/43 54/119/43
f 63/122/139 64/135/139 65/123/139
f 67/125/140 63/254/140 66/126/140
f 69/128/132 70/130/132 67/125/132
f 71/129/133 72/132/133 70/130/133
f 73/131/141 74/255/141 72/132/141
f 75/133/142 74/255/142 73/131/142
f 64/135/143 75/133/143 76/134/143
f 65/136/43 76/143/43 71/137/43
f 64/139/44 70/148/44 72/140/44
f 65/136/43 69/138/43 68/145/43
f 64/139/137 63/256/137 67/147/137
f 77/149/63 78/153/63 79/150/63
f 81/152/48 82/257/48 78/153/48
f 83/154/49 82/257/49 81/152/49
f 85/156/64 83/154/64 84/155/64
f 87/158/65 85/156/65 86/157/65
f 89/160/52 87/158/52 88/159/52
f 91/162/53 92/165/53 89/163/53
f 80/151/54 79/150/54 92/165/54
f 91/166/43 88/178/43 86/167/43
f 92/169/55 79/173/55 85/170/55
f 79/173/138 78/176/138 83/174/138
f 80/168/43 86/167/43 84/179/43
f 93/182/144 94/258/144 95/183/144
f 97/185/145 94/258/145 93/182/145
f 101/189/146 100/193/146 99/190/146
f 101/189/147 103/201/147 104/192/147
f 105/194/148 106/259/148 107/195/148
f 107/195/149 106/259/149 109/197/149
f 97/203/150 98/202/150 110/204/150
f 109/205/151 106/260/151 94/206/151
f 105/207/152 95/211/152 94/208/152
f 108/210/153 96/212/153 95/211/153
f 111/215/154 112/261/154 113/216/154
f 113/216/155 112/261/155 115/218/155
f 119/222/156 120/246/156 118/223/156
f 117/224/157 121/233/157 122/225/157
f 123/226/158 124/262/158 125/227/158
f 127/229/159 124/262/159 123/226/159
f 128/235/160 116/234/160 115/236/160
f 127/237/161 115/236/161 112/238/161
f 112/240/162 111/243/162 125/241/162
f 111/243/163 114/245/163 126/244/163
